<svg id="visual" viewBox="0 0 900 600" width="900" height="600" xmlns="http://www.w3.org/2000/svg" xmlns:xlink="http://www.w3.org/1999/xlink" version="1.1"><rect x="0" y="0" width="900" height="600" fill="#001220"></rect><path d="M0 435L21.5 428.2C43 421.3 86 407.7 128.8 407.8C171.7 408 214.3 422 257.2 420.3C300 418.7 343 401.3 385.8 387.5C428.7 373.7 471.3 363.3 514.2 365.7C557 368 600 383 642.8 394.3C685.7 405.7 728.3 413.3 771.2 419.7C814 426 857 431 878.5 433.5L900 436L900 601L878.5 601C857 601 814 601 771.2 601C728.3 601 685.7 601 642.8 601C600 601 557 601 514.2 601C471.3 601 428.7 601 385.8 601C343 601 300 601 257.2 601C214.3 601 171.7 601 128.8 601C86 601 43 601 21.5 601L0 601Z" fill="#fa7268"></path><path d="M0 397L21.5 409.5C43 422 86 447 128.8 449.3C171.7 451.7 214.3 431.3 257.2 424.5C300 417.7 343 424.3 385.8 435.5C428.7 446.7 471.3 462.3 514.2 467.5C557 472.7 600 467.3 642.8 456.2C685.7 445 728.3 428 771.2 420.7C814 413.3 857 415.7 878.5 416.8L900 418L900 601L878.5 601C857 601 814 601 771.2 601C728.3 601 685.7 601 642.8 601C600 601 557 601 514.2 601C471.3 601 428.7 601 385.8 601C343 601 300 601 257.2 601C214.3 601 171.7 601 128.8 601C86 601 43 601 21.5 601L0 601Z" fill="#ef5f67"></path><path d="M0 451L21.5 453.5C43 456 86 461 128.8 463.5C171.7 466 214.3 466 257.2 466.2C300 466.3 343 466.7 385.8 469.2C428.7 471.7 471.3 476.3 514.2 471.7C557 467 600 453 642.8 453.8C685.7 454.7 728.3 470.3 771.2 480.3C814 490.3 857 494.7 878.5 496.8L900 499L900 601L878.5 601C857 601 814 601 771.2 601C728.3 601 685.7 601 642.8 601C600 601 557 601 514.2 601C471.3 601 428.7 601 385.8 601C343 601 300 601 257.2 601C214.3 601 171.7 601 128.8 601C86 601 43 601 21.5 601L0 601Z" fill="#e34c67"></path><path d="M0 508L21.5 512.8C43 517.7 86 527.3 128.8 526.5C171.7 525.7 214.3 514.3 257.2 506.3C300 498.3 343 493.7 385.8 500.3C428.7 507 471.3 525 514.2 523.8C557 522.7 600 502.3 642.8 497.2C685.7 492 728.3 502 771.2 510.7C814 519.3 857 526.7 878.5 530.3L900 534L900 601L878.5 601C857 601 814 601 771.2 601C728.3 601 685.7 601 642.8 601C600 601 557 601 514.2 601C471.3 601 428.7 601 385.8 601C343 601 300 601 257.2 601C214.3 601 171.7 601 128.8 601C86 601 43 601 21.5 601L0 601Z" fill="#d53867"></path><path d="M0 552L21.5 553.5C43 555 86 558 128.8 559.2C171.7 560.3 214.3 559.7 257.2 555.8C300 552 343 545 385.8 546.8C428.7 548.7 471.3 559.3 514.2 563C557 566.7 600 563.3 642.8 555.7C685.7 548 728.3 536 771.2 533C814 530 857 536 878.5 539L900 542L900 601L878.5 601C857 601 814 601 771.2 601C728.3 601 685.7 601 642.8 601C600 601 557 601 514.2 601C471.3 601 428.7 601 385.8 601C343 601 300 601 257.2 601C214.3 601 171.7 601 128.8 601C86 601 43 601 21.5 601L0 601Z" fill="#c62368"></path></svg>