<svg id="visual" viewBox="0 0 960 300" width="960" height="300" xmlns="http://www.w3.org/2000/svg" xmlns:xlink="http://www.w3.org/1999/xlink" version="1.1"><rect x="0" y="0" width="960" height="300" fill="#001220"></rect><path d="M0 146L13.3 145.3C26.7 144.7 53.3 143.3 80 140.2C106.7 137 133.3 132 160 130.7C186.7 129.3 213.3 131.7 240 131.7C266.7 131.7 293.3 129.3 320 138C346.7 146.7 373.3 166.3 400 175.5C426.7 184.7 453.3 183.3 480 177C506.7 170.7 533.3 159.3 560 150.5C586.7 141.7 613.3 135.3 640 135.5C666.7 135.7 693.3 142.3 720 146C746.7 149.7 773.3 150.3 800 149.3C826.7 148.3 853.3 145.7 880 145C906.7 144.3 933.3 145.7 946.7 146.3L960 147L960 301L946.7 301C933.3 301 906.7 301 880 301C853.3 301 826.7 301 800 301C773.3 301 746.7 301 720 301C693.3 301 666.7 301 640 301C613.3 301 586.7 301 560 301C533.3 301 506.7 301 480 301C453.3 301 426.7 301 400 301C373.3 301 346.7 301 320 301C293.3 301 266.7 301 240 301C213.3 301 186.7 301 160 301C133.3 301 106.7 301 80 301C53.3 301 26.7 301 13.3 301L0 301Z" fill="#fa7268"></path><path d="M0 148L13.3 151.2C26.7 154.3 53.3 160.7 80 166.2C106.7 171.7 133.3 176.3 160 176.8C186.7 177.3 213.3 173.7 240 169C266.7 164.3 293.3 158.7 320 158.2C346.7 157.7 373.3 162.3 400 169C426.7 175.7 453.3 184.3 480 180.7C506.7 177 533.3 161 560 155.7C586.7 150.3 613.3 155.7 640 156.8C666.7 158 693.3 155 720 156.2C746.7 157.3 773.3 162.7 800 168.3C826.7 174 853.3 180 880 184.2C906.7 188.3 933.3 190.7 946.7 191.8L960 193L960 301L946.7 301C933.3 301 906.7 301 880 301C853.3 301 826.7 301 800 301C773.3 301 746.7 301 720 301C693.3 301 666.7 301 640 301C613.3 301 586.7 301 560 301C533.3 301 506.7 301 480 301C453.3 301 426.7 301 400 301C373.3 301 346.7 301 320 301C293.3 301 266.7 301 240 301C213.3 301 186.7 301 160 301C133.3 301 106.7 301 80 301C53.3 301 26.7 301 13.3 301L0 301Z" fill="#f36567"></path><path d="M0 178L13.3 176.7C26.7 175.3 53.3 172.7 80 179.2C106.7 185.7 133.3 201.3 160 204.2C186.7 207 213.3 197 240 197C266.7 197 293.3 207 320 204.2C346.7 201.3 373.3 185.7 400 181.2C426.7 176.7 453.3 183.3 480 189C506.7 194.7 533.3 199.3 560 195.7C586.7 192 613.3 180 640 180.3C666.7 180.7 693.3 193.3 720 195.2C746.7 197 773.3 188 800 188.7C826.7 189.3 853.3 199.7 880 204.8C906.7 210 933.3 210 946.7 210L960 210L960 301L946.7 301C933.3 301 906.7 301 880 301C853.3 301 826.7 301 800 301C773.3 301 746.7 301 720 301C693.3 301 666.7 301 640 301C613.3 301 586.7 301 560 301C533.3 301 506.7 301 480 301C453.3 301 426.7 301 400 301C373.3 301 346.7 301 320 301C293.3 301 266.7 301 240 301C213.3 301 186.7 301 160 301C133.3 301 106.7 301 80 301C53.3 301 26.7 301 13.3 301L0 301Z" fill="#eb5967"></path><path d="M0 193L13.3 193.7C26.7 194.3 53.3 195.7 80 195.8C106.7 196 133.3 195 160 199.5C186.7 204 213.3 214 240 217C266.7 220 293.3 216 320 216.8C346.7 217.7 373.3 223.3 400 222.5C426.7 221.7 453.3 214.3 480 212.8C506.7 211.3 533.3 215.7 560 216.3C586.7 217 613.3 214 640 216.7C666.7 219.3 693.3 227.7 720 231.3C746.7 235 773.3 234 800 230C826.7 226 853.3 219 880 218.8C906.7 218.7 933.3 225.3 946.7 228.7L960 232L960 301L946.7 301C933.3 301 906.7 301 880 301C853.3 301 826.7 301 800 301C773.3 301 746.7 301 720 301C693.3 301 666.7 301 640 301C613.3 301 586.7 301 560 301C533.3 301 506.7 301 480 301C453.3 301 426.7 301 400 301C373.3 301 346.7 301 320 301C293.3 301 266.7 301 240 301C213.3 301 186.7 301 160 301C133.3 301 106.7 301 80 301C53.3 301 26.7 301 13.3 301L0 301Z" fill="#e34c67"></path><path d="M0 216L13.3 220.2C26.7 224.3 53.3 232.7 80 233.5C106.7 234.3 133.3 227.7 160 223.2C186.7 218.7 213.3 216.3 240 217.5C266.7 218.7 293.3 223.3 320 225.5C346.7 227.7 373.3 227.3 400 230.2C426.7 233 453.3 239 480 243C506.7 247 533.3 249 560 248C586.7 247 613.3 243 640 237C666.7 231 693.3 223 720 223.2C746.7 223.3 773.3 231.7 800 235.2C826.7 238.7 853.3 237.3 880 235.2C906.7 233 933.3 230 946.7 228.5L960 227L960 301L946.7 301C933.3 301 906.7 301 880 301C853.3 301 826.7 301 800 301C773.3 301 746.7 301 720 301C693.3 301 666.7 301 640 301C613.3 301 586.7 301 560 301C533.3 301 506.7 301 480 301C453.3 301 426.7 301 400 301C373.3 301 346.7 301 320 301C293.3 301 266.7 301 240 301C213.3 301 186.7 301 160 301C133.3 301 106.7 301 80 301C53.3 301 26.7 301 13.3 301L0 301Z" fill="#da3f67"></path><path d="M0 248L13.3 246.5C26.7 245 53.3 242 80 243.3C106.7 244.7 133.3 250.3 160 253.3C186.7 256.3 213.3 256.7 240 254.5C266.7 252.3 293.3 247.7 320 246.5C346.7 245.3 373.3 247.7 400 248.5C426.7 249.3 453.3 248.7 480 251.2C506.7 253.7 533.3 259.3 560 262.7C586.7 266 613.3 267 640 265.3C666.7 263.7 693.3 259.3 720 257.3C746.7 255.3 773.3 255.7 800 255.2C826.7 254.7 853.3 253.3 880 252.8C906.7 252.3 933.3 252.7 946.7 252.8L960 253L960 301L946.7 301C933.3 301 906.7 301 880 301C853.3 301 826.7 301 800 301C773.3 301 746.7 301 720 301C693.3 301 666.7 301 640 301C613.3 301 586.7 301 560 301C533.3 301 506.7 301 480 301C453.3 301 426.7 301 400 301C373.3 301 346.7 301 320 301C293.3 301 266.7 301 240 301C213.3 301 186.7 301 160 301C133.3 301 106.7 301 80 301C53.3 301 26.7 301 13.3 301L0 301Z" fill="#d03267"></path><path d="M0 265L13.3 268.2C26.7 271.3 53.3 277.7 80 278.5C106.7 279.3 133.3 274.7 160 274.7C186.7 274.7 213.3 279.3 240 281.8C266.7 284.3 293.3 284.7 320 283.5C346.7 282.3 373.3 279.7 400 275.8C426.7 272 453.3 267 480 267.7C506.7 268.3 533.3 274.7 560 276.5C586.7 278.3 613.3 275.7 640 272.7C666.7 269.7 693.3 266.3 720 265.8C746.7 265.3 773.3 267.7 800 269C826.7 270.3 853.3 270.7 880 269.5C906.7 268.3 933.3 265.7 946.7 264.3L960 263L960 301L946.7 301C933.3 301 906.7 301 880 301C853.3 301 826.7 301 800 301C773.3 301 746.7 301 720 301C693.3 301 666.7 301 640 301C613.3 301 586.7 301 560 301C533.3 301 506.7 301 480 301C453.3 301 426.7 301 400 301C373.3 301 346.7 301 320 301C293.3 301 266.7 301 240 301C213.3 301 186.7 301 160 301C133.3 301 106.7 301 80 301C53.3 301 26.7 301 13.3 301L0 301Z" fill="#c62368"></path></svg>