<svg id="visual" viewBox="0 0 960 300" width="960" height="300" xmlns="http://www.w3.org/2000/svg" xmlns:xlink="http://www.w3.org/1999/xlink" version="1.1"><path d="M0 109L14.5 99.5C29 90 58 71 87.2 64.5C116.3 58 145.7 64 174.8 62.5C204 61 233 52 262 60C291 68 320 93 349 100.5C378 108 407 98 436.2 94C465.3 90 494.7 92 523.8 84.5C553 77 582 60 611 67C640 74 669 105 698 107.5C727 110 756 84 785.2 79C814.3 74 843.7 90 872.8 96C902 102 931 98 945.5 96L960 94L960 0L945.5 0C931 0 902 0 872.8 0C843.7 0 814.3 0 785.2 0C756 0 727 0 698 0C669 0 640 0 611 0C582 0 553 0 523.8 0C494.7 0 465.3 0 436.2 0C407 0 378 0 349 0C320 0 291 0 262 0C233 0 204 0 174.8 0C145.7 0 116.3 0 87.2 0C58 0 29 0 14.5 0L0 0Z" fill="#004cbb"></path><path d="M0 145L14.5 136C29 127 58 109 87.2 103.5C116.3 98 145.7 105 174.8 105C204 105 233 98 262 105C291 112 320 133 349 147C378 161 407 168 436.2 166.5C465.3 165 494.7 155 523.8 145.5C553 136 582 127 611 133.5C640 140 669 162 698 162.5C727 163 756 142 785.2 138.5C814.3 135 843.7 149 872.8 152C902 155 931 147 945.5 143L960 139L960 92L945.5 94C931 96 902 100 872.8 94C843.7 88 814.3 72 785.2 77C756 82 727 108 698 105.5C669 103 640 72 611 65C582 58 553 75 523.8 82.5C494.7 90 465.3 88 436.2 92C407 96 378 106 349 98.5C320 91 291 66 262 58C233 50 204 59 174.8 60.5C145.7 62 116.3 56 87.2 62.5C58 69 29 88 14.5 97.5L0 107Z" fill="#0059dd"></path><path d="M0 175L14.5 167C29 159 58 143 87.2 142C116.3 141 145.7 155 174.8 159.5C204 164 233 159 262 161.5C291 164 320 174 349 183.5C378 193 407 202 436.2 206C465.3 210 494.7 209 523.8 199.5C553 190 582 172 611 173C640 174 669 194 698 197C727 200 756 186 785.2 183C814.3 180 843.7 188 872.8 189C902 190 931 184 945.5 181L960 178L960 137L945.5 141C931 145 902 153 872.8 150C843.7 147 814.3 133 785.2 136.5C756 140 727 161 698 160.5C669 160 640 138 611 131.5C582 125 553 134 523.8 143.5C494.7 153 465.3 163 436.2 164.5C407 166 378 159 349 145C320 131 291 110 262 103C233 96 204 103 174.8 103C145.7 103 116.3 96 87.2 101.5C58 107 29 125 14.5 134L0 143Z" fill="#0066ff"></path><path d="M0 220L14.5 212C29 204 58 188 87.2 186C116.3 184 145.7 196 174.8 198.5C204 201 233 194 262 197C291 200 320 213 349 220C378 227 407 228 436.2 229C465.3 230 494.7 231 523.8 226C553 221 582 210 611 211.5C640 213 669 227 698 226C727 225 756 209 785.2 205C814.3 201 843.7 209 872.8 214C902 219 931 221 945.5 222L960 223L960 176L945.5 179C931 182 902 188 872.8 187C843.7 186 814.3 178 785.2 181C756 184 727 198 698 195C669 192 640 172 611 171C582 170 553 188 523.8 197.5C494.7 207 465.3 208 436.2 204C407 200 378 191 349 181.5C320 172 291 162 262 159.5C233 157 204 162 174.8 157.5C145.7 153 116.3 139 87.2 140C58 141 29 157 14.5 165L0 173Z" fill="#3c80ff"></path><path d="M0 301L14.5 301C29 301 58 301 87.2 301C116.3 301 145.7 301 174.8 301C204 301 233 301 262 301C291 301 320 301 349 301C378 301 407 301 436.2 301C465.3 301 494.7 301 523.8 301C553 301 582 301 611 301C640 301 669 301 698 301C727 301 756 301 785.2 301C814.3 301 843.7 301 872.8 301C902 301 931 301 945.5 301L960 301L960 221L945.5 220C931 219 902 217 872.8 212C843.7 207 814.3 199 785.2 203C756 207 727 223 698 224C669 225 640 211 611 209.5C582 208 553 219 523.8 224C494.7 229 465.3 228 436.2 227C407 226 378 225 349 218C320 211 291 198 262 195C233 192 204 199 174.8 196.5C145.7 194 116.3 182 87.2 184C58 186 29 202 14.5 210L0 218Z" fill="#6198ff"></path></svg>