<svg id="visual" viewBox="0 0 960 200" width="960" height="200" xmlns="http://www.w3.org/2000/svg" xmlns:xlink="http://www.w3.org/1999/xlink" version="1.1"><rect x="0" y="0" width="960" height="200" fill="#001220"></rect><path d="M0 53L13.3 52.5C26.7 52 53.3 51 80 48.2C106.7 45.3 133.3 40.7 160 39.3C186.7 38 213.3 40 240 40C266.7 40 293.3 38 320 46.3C346.7 54.7 373.3 73.3 400 82C426.7 90.7 453.3 89.3 480 83.3C506.7 77.3 533.3 66.7 560 58.2C586.7 49.7 613.3 43.3 640 43.3C666.7 43.3 693.3 49.7 720 53.2C746.7 56.7 773.3 57.3 800 56.5C826.7 55.7 853.3 53.3 880 52.7C906.7 52 933.3 53 946.7 53.5L960 54L960 201L946.7 201C933.3 201 906.7 201 880 201C853.3 201 826.7 201 800 201C773.3 201 746.7 201 720 201C693.3 201 666.7 201 640 201C613.3 201 586.7 201 560 201C533.3 201 506.7 201 480 201C453.3 201 426.7 201 400 201C373.3 201 346.7 201 320 201C293.3 201 266.7 201 240 201C213.3 201 186.7 201 160 201C133.3 201 106.7 201 80 201C53.3 201 26.7 201 13.3 201L0 201Z" fill="#fa7268"></path><path d="M0 56L13.3 58.8C26.7 61.7 53.3 67.3 80 72.5C106.7 77.7 133.3 82.3 160 82.8C186.7 83.3 213.3 79.7 240 75.2C266.7 70.7 293.3 65.3 320 64.8C346.7 64.3 373.3 68.7 400 75C426.7 81.3 453.3 89.7 480 86.3C506.7 83 533.3 68 560 63C586.7 58 613.3 63 640 64C666.7 65 693.3 62 720 63.2C746.7 64.3 773.3 69.7 800 75C826.7 80.3 853.3 85.7 880 89.5C906.7 93.3 933.3 95.7 946.7 96.8L960 98L960 201L946.7 201C933.3 201 906.7 201 880 201C853.3 201 826.7 201 800 201C773.3 201 746.7 201 720 201C693.3 201 666.7 201 640 201C613.3 201 586.7 201 560 201C533.3 201 506.7 201 480 201C453.3 201 426.7 201 400 201C373.3 201 346.7 201 320 201C293.3 201 266.7 201 240 201C213.3 201 186.7 201 160 201C133.3 201 106.7 201 80 201C53.3 201 26.7 201 13.3 201L0 201Z" fill="#f36567"></path><path d="M0 83L13.3 81.8C26.7 80.7 53.3 78.3 80 84.7C106.7 91 133.3 106 160 108.8C186.7 111.7 213.3 102.3 240 102.3C266.7 102.3 293.3 111.7 320 108.8C346.7 106 373.3 91 400 86.7C426.7 82.3 453.3 88.7 480 94.2C506.7 99.7 533.3 104.3 560 100.8C586.7 97.3 613.3 85.7 640 86C666.7 86.3 693.3 98.7 720 100.3C746.7 102 773.3 93 800 93.5C826.7 94 853.3 104 880 109C906.7 114 933.3 114 946.7 114L960 114L960 201L946.7 201C933.3 201 906.7 201 880 201C853.3 201 826.7 201 800 201C773.3 201 746.7 201 720 201C693.3 201 666.7 201 640 201C613.3 201 586.7 201 560 201C533.3 201 506.7 201 480 201C453.3 201 426.7 201 400 201C373.3 201 346.7 201 320 201C293.3 201 266.7 201 240 201C213.3 201 186.7 201 160 201C133.3 201 106.7 201 80 201C53.3 201 26.7 201 13.3 201L0 201Z" fill="#eb5967"></path><path d="M0 98L13.3 98.7C26.7 99.3 53.3 100.7 80 100.8C106.7 101 133.3 100 160 104.3C186.7 108.7 213.3 118.3 240 121.2C266.7 124 293.3 120 320 120.8C346.7 121.7 373.3 127.3 400 126.5C426.7 125.7 453.3 118.3 480 116.8C506.7 115.3 533.3 119.7 560 120.3C586.7 121 613.3 118 640 120.5C666.7 123 693.3 131 720 134.5C746.7 138 773.3 137 800 133.2C826.7 129.3 853.3 122.7 880 122.5C906.7 122.3 933.3 128.7 946.7 131.8L960 135L960 201L946.7 201C933.3 201 906.7 201 880 201C853.3 201 826.7 201 800 201C773.3 201 746.7 201 720 201C693.3 201 666.7 201 640 201C613.3 201 586.7 201 560 201C533.3 201 506.7 201 480 201C453.3 201 426.7 201 400 201C373.3 201 346.7 201 320 201C293.3 201 266.7 201 240 201C213.3 201 186.7 201 160 201C133.3 201 106.7 201 80 201C53.3 201 26.7 201 13.3 201L0 201Z" fill="#e34c67"></path><path d="M0 120L13.3 124C26.7 128 53.3 136 80 136.8C106.7 137.7 133.3 131.3 160 127C186.7 122.7 213.3 120.3 240 121.5C266.7 122.7 293.3 127.3 320 129.3C346.7 131.3 373.3 130.7 400 133.2C426.7 135.7 453.3 141.3 480 145.3C506.7 149.3 533.3 151.7 560 150.8C586.7 150 613.3 146 640 140.2C666.7 134.3 693.3 126.7 720 126.8C746.7 127 773.3 135 800 138.3C826.7 141.7 853.3 140.3 880 138.2C906.7 136 933.3 133 946.7 131.5L960 130L960 201L946.7 201C933.3 201 906.7 201 880 201C853.3 201 826.7 201 800 201C773.3 201 746.7 201 720 201C693.3 201 666.7 201 640 201C613.3 201 586.7 201 560 201C533.3 201 506.7 201 480 201C453.3 201 426.7 201 400 201C373.3 201 346.7 201 320 201C293.3 201 266.7 201 240 201C213.3 201 186.7 201 160 201C133.3 201 106.7 201 80 201C53.3 201 26.7 201 13.3 201L0 201Z" fill="#da3f67"></path><path d="M0 150L13.3 148.7C26.7 147.3 53.3 144.7 80 146C106.7 147.3 133.3 152.7 160 155.5C186.7 158.3 213.3 158.7 240 156.5C266.7 154.3 293.3 149.7 320 148.5C346.7 147.3 373.3 149.7 400 150.5C426.7 151.3 453.3 150.7 480 153C506.7 155.3 533.3 160.7 560 164C586.7 167.3 613.3 168.7 640 167.2C666.7 165.7 693.3 161.3 720 159.3C746.7 157.3 773.3 157.7 800 157.2C826.7 156.7 853.3 155.3 880 154.8C906.7 154.3 933.3 154.7 946.7 154.8L960 155L960 201L946.7 201C933.3 201 906.7 201 880 201C853.3 201 826.7 201 800 201C773.3 201 746.7 201 720 201C693.3 201 666.7 201 640 201C613.3 201 586.7 201 560 201C533.3 201 506.7 201 480 201C453.3 201 426.7 201 400 201C373.3 201 346.7 201 320 201C293.3 201 266.7 201 240 201C213.3 201 186.7 201 160 201C133.3 201 106.7 201 80 201C53.3 201 26.7 201 13.3 201L0 201Z" fill="#d03267"></path><path d="M0 167L13.3 170C26.7 173 53.3 179 80 179.7C106.7 180.3 133.3 175.7 160 175.7C186.7 175.7 213.3 180.3 240 182.8C266.7 185.3 293.3 185.7 320 184.5C346.7 183.3 373.3 180.7 400 176.8C426.7 173 453.3 168 480 168.7C506.7 169.3 533.3 175.7 560 177.5C586.7 179.3 613.3 176.7 640 173.8C666.7 171 693.3 168 720 167.7C746.7 167.3 773.3 169.7 800 170.8C826.7 172 853.3 172 880 170.8C906.7 169.7 933.3 167.3 946.7 166.2L960 165L960 201L946.7 201C933.3 201 906.7 201 880 201C853.3 201 826.7 201 800 201C773.3 201 746.7 201 720 201C693.3 201 666.7 201 640 201C613.3 201 586.7 201 560 201C533.3 201 506.7 201 480 201C453.3 201 426.7 201 400 201C373.3 201 346.7 201 320 201C293.3 201 266.7 201 240 201C213.3 201 186.7 201 160 201C133.3 201 106.7 201 80 201C53.3 201 26.7 201 13.3 201L0 201Z" fill="#c62368"></path></svg>